<mxfile host="65bd71144e">
    <diagram id="3szvdtiUHxVZeYS3wMvt" name="第 1 页">
        <mxGraphModel dx="1668" dy="617" grid="1" gridSize="10" guides="1" tooltips="1" connect="1" arrows="1" fold="1" page="1" pageScale="1" pageWidth="827" pageHeight="1169" background="none" math="0" shadow="0">
            <root>
                <mxCell id="0"/>
                <mxCell id="1" parent="0"/>
                <mxCell id="2" value="&lt;h4 style=&quot;font-size: 13px&quot;&gt;&lt;font color=&quot;#000000&quot;&gt;&lt;b style=&quot;line-height: 1.3&quot;&gt;JavaScript&lt;br&gt;&lt;/b&gt;&lt;b style=&quot;line-height: 1.3&quot;&gt;源代码&lt;/b&gt;&lt;/font&gt;&lt;/h4&gt;" style="rounded=1;whiteSpace=wrap;html=1;strokeWidth=3;perimeterSpacing=2;strokeColor=#b46504;glass=0;fillColor=#fad7ac;" vertex="1" parent="1">
                    <mxGeometry y="160" width="120" height="60" as="geometry"/>
                </mxCell>
                <mxCell id="4" value="&lt;p style=&quot;line-height: 1.2&quot;&gt;Parse&lt;/p&gt;" style="shape=parallelogram;perimeter=parallelogramPerimeter;whiteSpace=wrap;html=1;fixedSize=1;glass=1;fontSize=13;fontColor=#ffffff;strokeColor=#314354;strokeWidth=3;fillColor=#647687;size=30;" vertex="1" parent="1">
                    <mxGeometry x="170" y="165" width="110" height="50" as="geometry"/>
                </mxCell>
                <mxCell id="3" style="edgeStyle=none;html=1;exitX=1;exitY=0.5;exitDx=0;exitDy=0;fontSize=13;fontColor=#000000;entryX=0;entryY=0.5;entryDx=0;entryDy=0;" edge="1" parent="1" source="2" target="4">
                    <mxGeometry relative="1" as="geometry">
                        <mxPoint x="180" y="190" as="targetPoint"/>
                    </mxGeometry>
                </mxCell>
                <mxCell id="6" value="" style="endArrow=classic;html=1;fontSize=13;fontColor=#000000;exitX=1;exitY=0.5;exitDx=0;exitDy=0;entryX=0;entryY=0.5;entryDx=0;entryDy=0;" edge="1" parent="1" source="4" target="7">
                    <mxGeometry width="50" height="50" relative="1" as="geometry">
                        <mxPoint x="270" y="220" as="sourcePoint"/>
                        <mxPoint x="310" y="190" as="targetPoint"/>
                    </mxGeometry>
                </mxCell>
                <mxCell id="7" value="&lt;h4 style=&quot;font-size: 13px&quot;&gt;&lt;font color=&quot;#000000&quot;&gt;&lt;b style=&quot;line-height: 1.3&quot;&gt;AST&lt;br&gt;&lt;/b&gt;抽象语法树&lt;/font&gt;&lt;/h4&gt;" style="rounded=1;whiteSpace=wrap;html=1;strokeWidth=3;perimeterSpacing=2;strokeColor=#b46504;glass=0;fillColor=#fad7ac;align=center;fontSize=12;" vertex="1" parent="1">
                    <mxGeometry x="320" y="160" width="120" height="60" as="geometry"/>
                </mxCell>
                <mxCell id="12" style="edgeStyle=none;html=1;exitX=1;exitY=0.5;exitDx=0;exitDy=0;entryX=0;entryY=0.5;entryDx=0;entryDy=0;fontSize=12;fontColor=#000000;" edge="1" parent="1" source="9" target="11">
                    <mxGeometry relative="1" as="geometry"/>
                </mxCell>
                <mxCell id="9" value="&lt;p style=&quot;line-height: 1.2&quot;&gt;Ignition&lt;/p&gt;" style="shape=parallelogram;perimeter=parallelogramPerimeter;whiteSpace=wrap;html=1;fixedSize=1;glass=1;fontSize=13;fontColor=#ffffff;strokeColor=#314354;strokeWidth=3;fillColor=#647687;size=30;" vertex="1" parent="1">
                    <mxGeometry x="490" y="165" width="110" height="50" as="geometry"/>
                </mxCell>
                <mxCell id="10" style="edgeStyle=none;html=1;exitX=1;exitY=0.5;exitDx=0;exitDy=0;fontSize=12;fontColor=#000000;" edge="1" parent="1" source="7" target="9">
                    <mxGeometry relative="1" as="geometry"/>
                </mxCell>
                <mxCell id="15" value="" style="edgeStyle=none;html=1;fontSize=12;fontColor=#000000;" edge="1" parent="1" source="11">
                    <mxGeometry relative="1" as="geometry">
                        <mxPoint x="920" y="190" as="targetPoint"/>
                    </mxGeometry>
                </mxCell>
                <mxCell id="11" value="&lt;h4 style=&quot;font-size: 13px&quot;&gt;&lt;font color=&quot;#000000&quot;&gt;&lt;b style=&quot;line-height: 1.3&quot;&gt;bytecode&lt;br&gt;&lt;/b&gt;字节码&lt;/font&gt;&lt;/h4&gt;" style="rounded=1;whiteSpace=wrap;html=1;strokeWidth=3;perimeterSpacing=2;strokeColor=#b46504;glass=0;fillColor=#fad7ac;align=center;fontSize=12;" vertex="1" parent="1">
                    <mxGeometry x="650" y="160" width="120" height="60" as="geometry"/>
                </mxCell>
                <mxCell id="16" value="运行结果" style="text;html=1;align=center;verticalAlign=middle;resizable=0;points=[];autosize=1;strokeColor=none;fillColor=none;fontSize=12;fontColor=#FFFFFF;" vertex="1" parent="1">
                    <mxGeometry x="920" y="180" width="60" height="20" as="geometry"/>
                </mxCell>
                <mxCell id="17" style="edgeStyle=none;html=1;exitX=1;exitY=0.5;exitDx=0;exitDy=0;entryX=0;entryY=0.5;entryDx=0;entryDy=0;fontSize=12;fontColor=#000000;" edge="1" parent="1" source="18" target="20">
                    <mxGeometry relative="1" as="geometry"/>
                </mxCell>
                <mxCell id="18" value="&lt;p style=&quot;line-height: 1.2&quot;&gt;TurboFan&lt;/p&gt;" style="shape=parallelogram;perimeter=parallelogramPerimeter;whiteSpace=wrap;html=1;fixedSize=1;glass=1;fontSize=13;fontColor=#ffffff;strokeColor=#314354;strokeWidth=3;fillColor=#647687;size=30;" vertex="1" parent="1">
                    <mxGeometry x="490" y="325" width="110" height="50" as="geometry"/>
                </mxCell>
                <mxCell id="19" value="" style="edgeStyle=none;html=1;fontSize=12;fontColor=#000000;" edge="1" parent="1" source="20">
                    <mxGeometry relative="1" as="geometry">
                        <mxPoint x="920" y="350" as="targetPoint"/>
                    </mxGeometry>
                </mxCell>
                <mxCell id="26" style="edgeStyle=none;html=1;exitX=0.5;exitY=0;exitDx=0;exitDy=0;entryX=0.5;entryY=1;entryDx=0;entryDy=0;fontSize=12;fontColor=#000000;" edge="1" parent="1" source="20" target="11">
                    <mxGeometry relative="1" as="geometry"/>
                </mxCell>
                <mxCell id="20" value="&lt;h4 style=&quot;font-size: 13px&quot;&gt;&lt;font color=&quot;#000000&quot;&gt;&lt;b style=&quot;line-height: 1.3&quot;&gt;MachineCode&lt;br&gt;&lt;/b&gt;优化的机器码&lt;/font&gt;&lt;/h4&gt;" style="rounded=1;whiteSpace=wrap;html=1;strokeWidth=3;perimeterSpacing=2;strokeColor=#b46504;glass=0;fillColor=#fad7ac;align=center;fontSize=12;" vertex="1" parent="1">
                    <mxGeometry x="650" y="320" width="120" height="60" as="geometry"/>
                </mxCell>
                <mxCell id="21" value="运行结果" style="text;html=1;align=center;verticalAlign=middle;resizable=0;points=[];autosize=1;strokeColor=none;fillColor=none;fontSize=12;fontColor=#FFFFFF;" vertex="1" parent="1">
                    <mxGeometry x="920" y="340" width="60" height="20" as="geometry"/>
                </mxCell>
                <mxCell id="23" value="" style="endArrow=none;dashed=1;html=1;fontSize=12;fontColor=#000000;" edge="1" parent="1">
                    <mxGeometry width="50" height="50" relative="1" as="geometry">
                        <mxPoint x="890" y="425" as="sourcePoint"/>
                        <mxPoint x="890" y="105" as="targetPoint"/>
                    </mxGeometry>
                </mxCell>
                <mxCell id="25" value="收集信息,例如类型,&lt;br&gt;有了类型才能进行真实运算" style="text;html=1;align=center;verticalAlign=middle;resizable=0;points=[];autosize=1;strokeColor=none;fillColor=default;fontSize=12;fontColor=#23333;labelBackgroundColor=default;" vertex="1" parent="1">
                    <mxGeometry x="380" y="250" width="160" height="30" as="geometry"/>
                </mxCell>
                <mxCell id="28" value="deoptimization(去优化),例如&lt;br&gt;当热点函数调用类型发生改变,&lt;br&gt;需要重新变为字节码,&lt;br&gt;然后执行,判断是否后续优化" style="text;html=1;align=center;verticalAlign=middle;resizable=0;points=[];autosize=1;strokeColor=none;fillColor=none;fontSize=12;fontColor=#23333;labelBackgroundColor=default;" vertex="1" parent="1">
                    <mxGeometry x="710" y="240" width="170" height="60" as="geometry"/>
                </mxCell>
                <mxCell id="24" style="edgeStyle=none;html=1;exitX=0.5;exitY=1;exitDx=0;exitDy=0;entryX=0.5;entryY=0;entryDx=0;entryDy=0;fontSize=12;fontColor=#000000;" edge="1" parent="1" source="9" target="18">
                    <mxGeometry relative="1" as="geometry"/>
                </mxCell>
                <mxCell id="31" style="edgeStyle=none;html=1;exitX=0.5;exitY=1;exitDx=0;exitDy=0;entryX=0.5;entryY=0;entryDx=0;entryDy=0;fontSize=12;fontColor=#000000;" edge="1" parent="1" source="11" target="18">
                    <mxGeometry relative="1" as="geometry"/>
                </mxCell>
                <mxCell id="35" value="字节码是跨平台的,&lt;br&gt;所以不管在哪里,&lt;br&gt;都可以被解析,然后执行" style="text;html=1;align=center;verticalAlign=middle;resizable=0;points=[];autosize=1;strokeColor=none;fillColor=none;fontColor=#23333;labelBackgroundColor=default;" vertex="1" parent="1">
                    <mxGeometry x="740" y="110" width="140" height="50" as="geometry"/>
                </mxCell>
                <mxCell id="36" value="机器码可以直接交给&lt;br&gt;CPU执行" style="text;html=1;align=center;verticalAlign=middle;resizable=0;points=[];autosize=1;strokeColor=none;fillColor=none;fontColor=#FFFFFF;" vertex="1" parent="1">
                    <mxGeometry x="760" y="390" width="120" height="30" as="geometry"/>
                </mxCell>
                <mxCell id="37" value="所以如果使用的 ts 固定类型, &lt;br&gt;编译出来的 js 代码,&lt;br&gt;v8引擎可以帮我做很多优化,&lt;br&gt;而且可以避免 deoptimization" style="text;html=1;align=center;verticalAlign=middle;resizable=0;points=[];autosize=1;strokeColor=none;fillColor=none;fontColor=#23333;labelBackgroundColor=default;" vertex="1" parent="1">
                    <mxGeometry x="350" y="380" width="170" height="60" as="geometry"/>
                </mxCell>
                <mxCell id="39" value="" style="edgeStyle=segmentEdgeStyle;endArrow=classic;html=1;fontColor=#FFFFFF;entryX=0.25;entryY=0;entryDx=0;entryDy=0;" edge="1" parent="1" target="7">
                    <mxGeometry width="50" height="50" relative="1" as="geometry">
                        <mxPoint x="60" y="158" as="sourcePoint"/>
                        <mxPoint x="70" y="100" as="targetPoint"/>
                        <Array as="points">
                            <mxPoint x="60" y="110"/>
                            <mxPoint x="349" y="110"/>
                        </Array>
                    </mxGeometry>
                </mxCell>
                <mxCell id="41" value="经过 Parse 解析成为 AST 抽象语法树的时候&lt;br&gt;&lt;div&gt;&lt;span&gt;会生成全局对象 Global Object (GO)&lt;/span&gt;&lt;/div&gt;在浏览器中,也就是我们的 window&lt;br&gt;在 node 中,就是 global" style="text;html=1;align=left;verticalAlign=middle;resizable=0;points=[];autosize=1;strokeColor=none;fillColor=none;fontColor=#23333;labelBackgroundColor=default;" vertex="1" parent="1">
                    <mxGeometry x="90" y="40" width="250" height="60" as="geometry"/>
                </mxCell>
            </root>
        </mxGraphModel>
    </diagram>
</mxfile>